<?xml version="1.0" standalone="no"?>
<!DOCTYPE svg PUBLIC "-//W3C//DTD SVG 20010904//EN"
 "http://www.w3.org/TR/2001/REC-SVG-20010904/DTD/svg10.dtd">
<svg version="1.0" xmlns="http://www.w3.org/2000/svg"
 width="626.000000pt" height="626.000000pt" viewBox="0 0 626.000000 626.000000"
 preserveAspectRatio="xMidYMid meet">

<g transform="translate(0.000000,626.000000) scale(0.100000,-0.100000)"
fill="#000000" stroke="none">
<path d="M0 3130 l0 -3130 3130 0 3130 0 0 3130 0 3130 -3130 0 -3130 0 0
-3130z m3155 2303 c-67 -154 -98 -383 -76 -563 34 -271 125 -456 256 -516 41
-19 45 -23 24 -23 -38 -1 -125 46 -160 87 -76 92 -138 263 -160 446 -25 197
20 494 84 564 24 26 42 29 32 5z m534 -648 c-19 -101 15 -233 90 -347 27 -40
89 -122 140 -181 110 -131 159 -201 210 -304 39 -79 105 -253 98 -260 -10 -9
-58 70 -81 131 -59 156 -128 266 -281 446 -134 158 -180 236 -210 351 -22 84
-15 176 16 202 12 10 23 16 25 15 1 -2 -2 -26 -7 -53z m-1356 -328 c-7 -108 9
-217 38 -264 11 -17 34 -37 52 -44 29 -11 30 -13 9 -16 -37 -7 -85 28 -112 82
-22 44 -24 62 -25 171 0 106 2 125 19 143 11 12 20 21 22 21 1 0 0 -42 -3 -93z
m1519 -486 c16 -15 13 -16 -55 -17 -172 -2 -303 -90 -342 -230 l-13 -49 -1 40
c-2 87 85 202 185 247 48 21 156 38 189 31 11 -3 28 -12 37 -22z m-1191 -14
c93 -45 180 -151 178 -218 0 -18 -5 -13 -16 20 -18 52 -92 130 -149 159 -51
26 -150 45 -208 41 -25 -2 -46 -1 -46 3 0 38 157 34 241 -5z m1722 -122 c100
-25 210 -59 244 -76 108 -52 173 -150 173 -260 0 -44 -172 -835 -185 -847 -3
-3 -7 -3 -9 -1 -3 2 35 182 85 399 96 428 103 484 69 556 -27 55 -81 109 -138
138 -26 13 -134 46 -240 73 -105 26 -192 51 -192 55 0 11 -7 13 193 -37z
m-2418 6 c-6 -6 -69 -25 -140 -44 -151 -40 -196 -60 -247 -114 -51 -52 -78
-116 -77 -183 0 -33 35 -211 88 -445 49 -214 87 -392 85 -394 -2 -2 -7 -2 -10
2 -4 3 -47 183 -96 399 -96 422 -102 472 -64 549 27 57 79 112 135 142 27 15
108 43 178 62 138 36 163 40 148 26z m1150 -211 c0 -12 -24 -18 -105 -27 -67
-8 -106 -17 -109 -25 -2 -7 -29 -60 -59 -118 -125 -239 -262 -513 -262 -525 0
-7 -7 -19 -17 -26 -15 -13 -16 -11 -9 16 10 40 149 326 240 495 41 74 79 152
85 172 12 35 14 37 69 43 31 3 64 8 72 10 38 8 95 0 95 -15z m253 1 c16 -5 28
-19 36 -43 7 -19 58 -121 114 -224 107 -201 226 -453 217 -462 -7 -8 -6 -10
-69 128 -31 68 -101 208 -156 310 -55 102 -104 199 -110 217 -13 35 -22 38
-152 49 -68 6 -78 9 -78 26 0 19 5 19 87 13 47 -4 97 -11 111 -14z m-548 -46
c-6 -7 -26 -17 -43 -21 -86 -18 -250 -80 -337 -127 -161 -87 -331 -236 -428
-376 -34 -48 -52 -67 -52 -54 0 32 96 161 185 249 162 159 389 286 612 343 67
17 86 13 63 -14z m844 -30 c164 -62 328 -162 450 -276 86 -81 206 -234 206
-264 0 -13 -12 -2 -37 35 -55 83 -237 260 -328 320 -44 28 -120 71 -170 95
-86 41 -269 105 -300 105 -12 0 -35 28 -35 43 0 8 141 -31 214 -58z m847 -17
c23 -104 18 -417 -10 -556 -22 -112 -53 -225 -69 -250 -5 -7 -16 -10 -24 -7
-14 5 -13 15 7 79 51 160 69 287 69 491 0 108 -5 209 -11 234 -9 32 -9 48 0
62 16 26 23 17 38 -53z m-2762 -134 c16 -12 36 -15 69 -11 l47 5 -24 -19 c-41
-33 -131 -15 -131 27 0 18 10 18 39 -2z m1401 -714 l0 -210 -60 0 -60 0 0 95
0 95 -30 0 -30 0 0 -110 0 -110 25 0 c26 0 26 0 23 -77 -3 -72 -5 -78 -25 -81
-22 -3 -23 -7 -23 -123 l0 -119 30 0 30 0 0 110 0 110 60 0 60 0 0 -225 0
-225 -177 2 -178 3 -3 113 c-2 95 0 112 13 112 13 0 15 38 15 305 0 300 0 305
-20 305 -20 0 -21 5 -18 113 l3 112 65 6 c36 3 118 6 183 7 l117 2 0 -210z
m355 192 l60 -7 3 -159 c1 -89 -2 -164 -7 -169 -5 -5 -28 -6 -50 -2 l-41 7 0
54 c0 41 -4 54 -15 54 -13 0 -15 -41 -15 -305 0 -264 2 -305 15 -305 12 0 15
-19 15 -115 l0 -115 -110 0 -110 0 0 115 c0 108 1 115 20 115 20 0 20 7 20
310 0 269 -2 310 -15 310 -12 0 -15 -13 -15 -55 l0 -55 -45 0 -45 0 0 171 0
172 138 -7 c75 -4 164 -11 197 -14z m-745 -116 c0 -76 -4 -116 -11 -118 -6 -2
-28 -64 -49 -137 l-38 -133 47 -164 c28 -100 51 -164 59 -164 9 0 12 -30 12
-115 l0 -115 -78 0 -79 0 -41 163 -41 162 4 -162 4 -163 -90 0 -89 0 0 28 c0
16 -3 63 -6 105 -6 67 -5 77 10 77 14 0 16 14 16 108 0 242 -13 470 -26 465
-13 -5 -29 113 -22 177 3 35 3 35 78 52 122 26 110 42 111 -144 l1 -163 42
170 43 170 39 6 c21 3 54 7 72 8 l32 1 0 -114z m967 85 c134 -23 165 -38 197
-94 67 -113 46 -364 -35 -421 l-22 -15 31 -26 c48 -40 65 -107 60 -229 -5
-112 -26 -173 -72 -216 -26 -24 -34 -25 -168 -28 -77 -2 -143 0 -147 5 -4 4
-5 56 -3 116 3 77 7 107 16 107 10 0 14 69 20 292 6 257 5 293 -9 300 -12 7
-15 30 -15 118 0 128 -16 119 147 91z m-1433 -85 c23 -14 24 -22 28 -128 2
-62 1 -116 -2 -120 -3 -4 -28 -10 -57 -14 -49 -6 -51 -5 -55 17 -2 16 -10 24
-23 24 -16 0 -21 -8 -23 -36 -3 -34 0 -38 42 -63 85 -50 121 -118 136 -260 18
-174 -13 -308 -83 -360 -41 -30 -119 -28 -183 5 l-49 25 -9 117 c-5 65 -7 119
-5 121 2 2 30 6 62 10 52 6 57 4 57 -13 0 -47 25 -66 50 -36 23 28 2 70 -58
118 -35 27 -69 65 -84 94 -52 96 -60 273 -17 388 45 120 178 174 273 111z
m1918 -32 c49 -16 79 -32 82 -42 2 -9 17 -165 32 -346 19 -215 33 -333 41
-341 9 -9 10 -37 6 -99 l-6 -86 -99 0 -99 0 3 98 c2 71 6 96 16 94 8 -1 12 12
12 42 0 41 -2 45 -31 51 -17 4 -32 5 -33 3 -2 -1 -6 -22 -9 -45 -4 -33 -2 -43
9 -43 11 0 14 -21 14 -100 l0 -100 -90 0 -90 0 0 101 c0 71 4 104 14 114 7 8
16 38 20 67 4 29 27 187 51 351 25 163 45 300 45 302 0 11 39 4 112 -21z
m-2342 -66 c6 -65 111 -653 118 -657 5 -3 12 -48 14 -98 l5 -93 -103 0 -103 0
-3 86 c-2 63 0 88 10 91 6 3 12 20 12 39 0 32 -2 34 -35 34 -34 0 -35 -1 -35
-39 0 -25 5 -41 15 -45 12 -4 15 -24 15 -86 l0 -80 -90 0 -90 0 0 79 c0 44 4
81 9 83 5 2 24 140 41 308 18 168 35 308 39 312 18 20 180 78 181 66z m2661
-49 l99 -41 0 -84 c0 -83 0 -84 -23 -79 l-24 6 -6 -143 c-4 -79 -7 -178 -7
-220 0 -71 2 -78 20 -78 17 0 20 7 20 45 l0 46 38 -6 c64 -11 74 -16 68 -32
-3 -8 -6 -59 -6 -114 l0 -99 -166 0 -167 0 7 53 c3 28 6 69 6 90 0 24 5 37 14
37 10 0 15 31 20 138 10 235 10 336 -3 340 -15 5 -15 182 0 182 5 0 55 -19
110 -41z m396 -195 c32 -18 33 -22 33 -81 0 -67 -1 -69 -31 -53 -18 10 -19 6
-19 -164 0 -149 2 -175 16 -180 24 -9 24 -9 24 30 l0 36 43 -7 c23 -4 45 -9
50 -12 4 -2 7 -44 7 -94 l0 -89 -158 0 c-87 0 -161 2 -163 4 -2 2 -3 39 -1 81
3 57 7 75 17 72 10 -4 14 37 20 190 6 174 5 197 -9 205 -12 7 -16 25 -16 77 0
37 3 71 7 74 5 6 65 -23 180 -89z m-3415 65 c67 -36 63 -251 -6 -308 -15 -13
-14 -15 13 -32 45 -27 61 -67 61 -151 0 -83 -18 -129 -63 -162 -25 -19 -46
-21 -173 -24 l-144 -4 0 61 c0 48 3 61 15 61 13 0 15 24 15 155 0 131 -2 155
-15 155 -12 0 -15 13 -15 55 0 54 1 55 43 82 58 37 225 123 238 123 6 0 19 -5
31 -11z m1800 -933 c12 -18 9 -121 -4 -134 -18 -18 -56 -14 -68 7 -18 34 -12
109 10 131 20 20 47 18 62 -4z m-1614 -18 c2 -20 -1 -28 -12 -28 -9 0 -16 7
-16 15 0 8 -4 15 -10 15 -5 0 -10 -22 -10 -50 0 -50 13 -67 23 -30 9 33 29 23
25 -12 -3 -30 -6 -33 -38 -33 l-35 0 -3 64 c-4 84 0 93 40 89 28 -2 34 -8 36
-30z m222 3 c0 -17 5 -33 10 -36 6 -4 10 8 10 29 0 29 4 36 20 36 18 0 20 -7
20 -80 0 -73 -2 -80 -20 -80 -16 0 -20 7 -20 30 0 17 -4 30 -10 30 -5 0 -10
-13 -10 -30 0 -20 -5 -30 -15 -30 -12 0 -15 16 -15 80 0 64 3 80 15 80 10 0
15 -10 15 -29z m314 12 c2 -10 7 -38 11 -63 4 -25 9 -53 11 -62 4 -13 0 -18
-15 -18 -12 0 -21 7 -21 15 0 8 -4 15 -9 15 -5 0 -11 -7 -15 -15 -3 -8 -13
-15 -22 -15 -12 0 -15 6 -11 23 3 12 9 45 13 72 3 28 8 53 11 58 8 14 42 7 47
-10z m256 -23 l6 -35 7 38 c6 27 13 37 27 37 18 0 20 -7 20 -79 l0 -79 -35 0
c-29 0 -35 4 -36 22 -2 20 -2 20 -6 -1 -2 -13 -11 -23 -19 -23 -11 0 -14 17
-14 81 0 78 1 80 23 77 17 -2 23 -11 27 -38z m329 26 c19 -23 9 -70 -16 -81
-16 -7 -23 -18 -23 -37 0 -21 -5 -28 -20 -28 -18 0 -20 7 -20 80 l0 80 34 0
c18 0 39 -6 45 -14z m230 -66 c2 -75 1 -80 -18 -80 -19 0 -21 6 -21 80 0 71 2
80 19 80 16 0 18 -9 20 -80z m502 63 c1 -17 2 -17 6 0 5 20 29 23 35 5 2 -7 3
-42 3 -78 0 -52 -3 -65 -16 -68 -11 -2 -21 7 -27 25 l-10 28 -1 -27 c-1 -18
-6 -28 -16 -28 -16 0 -17 4 -17 45 0 104 2 115 22 115 12 0 20 -7 21 -17z
m307 -10 c4 -25 -22 -33 -31 -10 -4 8 -6 6 -6 -4 -1 -9 8 -24 19 -34 29 -27
24 -79 -8 -83 -26 -4 -52 13 -52 34 0 17 27 18 33 2 2 -7 8 -10 12 -6 4 4 -5
23 -20 42 -20 27 -26 42 -21 62 6 21 11 25 39 22 24 -2 33 -8 35 -25z m222 -3
c0 -16 5 -30 10 -30 6 0 10 14 10 30 0 23 4 30 20 30 18 0 20 -7 20 -80 0 -73
-2 -80 -20 -80 -16 0 -20 7 -20 30 0 17 -4 30 -10 30 -5 0 -10 -13 -10 -30 0
-20 -5 -30 -15 -30 -12 0 -15 16 -15 80 0 64 3 80 15 80 10 0 15 -10 15 -30z
m280 -50 c0 -64 -3 -80 -15 -80 -12 0 -15 16 -15 80 0 64 3 80 15 80 12 0 15
-16 15 -80z m272 55 c13 -30 -3 -75 -27 -75 -10 0 -15 -10 -15 -30 0 -23 -4
-30 -20 -30 -18 0 -20 7 -20 80 l0 80 35 0 c28 0 38 -5 47 -25z m-2401 -269
c69 -64 196 -150 294 -199 39 -19 192 -81 342 -137 l272 -103 263 98 c380 141
506 208 665 356 47 44 80 54 42 13 -28 -31 -165 -138 -225 -176 -86 -55 -208
-109 -471 -208 l-272 -102 -272 102 c-295 110 -371 145 -494 224 -123 81 -242
186 -209 186 4 0 33 -24 65 -54z m1879 -50 c0 -2 -8 -10 -17 -17 -16 -13 -17
-12 -4 4 13 16 21 21 21 13z m-1370 -56 c0 -6 -35 -10 -85 -10 -50 0 -85 4
-85 10 0 6 35 10 85 10 50 0 85 -4 85 -10z m970 0 c0 -6 -35 -10 -86 -10 -54
0 -83 4 -79 10 3 6 42 10 86 10 46 0 79 -4 79 -10z"/>
<path d="M3760 2515 c0 -79 3 -105 13 -105 28 0 37 25 37 101 0 90 -5 109 -31
109 -17 0 -19 -9 -19 -105z"/>
<path d="M3750 2149 c0 -109 0 -110 22 -107 26 3 35 32 37 115 1 66 -12 103
-39 103 -19 0 -20 -6 -20 -111z"/>
<path d="M4162 2348 c-12 -102 -9 -117 21 -118 7 0 -1 209 -7 217 -2 2 -8 -43
-14 -99z"/>
<path d="M1767 2311 c-12 -110 -10 -130 13 -124 17 4 19 11 14 42 -3 20 -9 61
-13 91 l-7 55 -7 -64z"/>
<path d="M1377 2314 c-4 -4 -7 -36 -7 -72 l0 -64 23 15 c18 12 22 24 22 68 0
41 -4 54 -15 57 -9 1 -19 0 -23 -4z"/>
<path d="M1374 2075 c-8 -19 0 -113 10 -122 4 -4 15 -2 24 3 13 9 17 25 17 70
0 54 -2 59 -23 62 -13 2 -25 -3 -28 -13z"/>
<path d="M3273 1490 c0 -30 2 -43 4 -27 2 15 2 39 0 55 -2 15 -4 2 -4 -28z"/>
<path d="M2201 1484 c0 -11 3 -14 6 -6 3 7 2 16 -1 19 -3 4 -6 -2 -5 -13z"/>
<path d="M2782 1520 c0 -14 2 -19 5 -12 2 6 2 18 0 25 -3 6 -5 1 -5 -13z"/>
<path d="M4584 1525 c4 -24 16 -30 16 -7 0 12 -4 22 -9 22 -5 0 -8 -7 -7 -15z"/>
</g>
</svg>
